<?xml version="1.0" standalone="no"?>
<!DOCTYPE svg PUBLIC "-//W3C//DTD SVG 20010904//EN"
 "http://www.w3.org/TR/2001/REC-SVG-20010904/DTD/svg10.dtd">
<svg version="1.0" xmlns="http://www.w3.org/2000/svg"
 width="820.000000pt" height="680.000000pt" viewBox="0 0 820.000000 680.000000"
 preserveAspectRatio="xMidYMid meet">

<g transform="translate(0.000000,680.000000) scale(0.100000,-0.100000)"
fill="#000000" stroke="none">
<path d="M4535 5580 c-55 -5 -115 -13 -134 -19 -19 -6 -38 -8 -43 -5 -5 3 -15
1 -22 -5 -7 -6 -40 -13 -74 -16 -59 -4 -223 -62 -302 -105 -19 -11 -54 -29
-77 -40 -93 -45 -221 -165 -290 -271 -43 -67 -123 -228 -123 -248 0 -17 -18
-13 -58 14 -57 37 -196 93 -255 101 -65 10 -238 10 -294 1 -186 -30 -376 -154
-510 -332 -132 -176 -203 -432 -187 -670 l7 -93 -34 -6 c-55 -11 -219 -77
-284 -115 -329 -190 -564 -531 -641 -931 -25 -132 -25 -415 0 -555 70 -387
306 -736 623 -923 77 -46 186 -91 288 -121 84 -24 103 -26 280 -25 185 0 193
1 295 33 132 41 270 112 382 196 l87 66 80 -64 c104 -82 222 -146 341 -185
138 -45 212 -55 374 -49 121 4 156 9 245 36 161 49 266 107 409 224 l73 59 27
-25 c93 -87 318 -203 478 -248 157 -44 230 -52 414 -46 149 5 177 9 291 40
712 199 1178 942 1099 1754 -15 160 -31 238 -76 378 -138 423 -428 768 -796
944 -94 45 -97 50 -98 141 -1 62 -19 167 -44 250 -9 30 -18 63 -21 73 -11 47
-20 68 -61 152 -76 153 -200 302 -324 388 -25 17 -54 39 -65 48 -11 9 -45 29
-75 44 -30 15 -67 34 -81 41 -15 8 -35 15 -45 17 -11 2 -32 9 -49 16 -16 7
-42 15 -58 18 -15 3 -30 10 -33 14 -3 5 -24 9 -48 9 -23 0 -46 3 -49 7 -4 3
-21 8 -39 10 -17 2 -36 7 -42 12 -16 13 -344 21 -461 11z m388 -1128 c39 -67
86 -146 104 -175 18 -28 43 -72 57 -97 13 -25 61 -106 106 -180 45 -74 91
-151 102 -170 24 -41 85 -144 107 -180 51 -81 101 -175 98 -184 -3 -9 -91 -34
-358 -105 -59 -16 -110 -31 -115 -34 -5 -3 -70 -21 -144 -41 -74 -20 -182 -49
-240 -66 -175 -50 -354 -101 -377 -107 -30 -7 -29 1 8 88 17 41 41 104 53 140
13 36 31 80 41 98 9 18 13 36 8 40 -4 4 -40 20 -79 34 -263 101 -540 127 -774
72 -187 -43 -356 -128 -505 -255 -33 -28 -61 -46 -63 -40 -8 22 31 207 65 315
66 206 152 361 272 487 118 126 243 199 426 250 154 44 355 50 536 18 166 -29
234 -45 310 -74 99 -37 125 -40 132 -19 3 10 28 72 55 138 27 66 53 131 57
145 4 14 12 31 18 38 12 15 3 27 100 -136z m-963 -1172 c0 -5 -11 -37 -24 -72
-23 -61 -97 -247 -110 -279 -5 -12 13 -23 91 -51 127 -47 146 -53 283 -79 228
-43 516 -9 707 84 114 55 217 124 300 201 18 16 36 27 39 23 12 -12 -26 -199
-67 -325 -61 -188 -126 -312 -222 -427 -159 -191 -355 -294 -633 -335 -178
-25 -437 9 -688 91 -66 21 -120 38 -121 36 -6 -7 -100 -241 -117 -289 -11 -32
-23 -58 -26 -58 -4 0 -20 23 -37 51 -16 28 -42 69 -56 92 -14 23 -92 155 -174
292 -81 138 -158 266 -170 285 -12 19 -41 69 -65 110 -24 41 -58 98 -75 125
-18 28 -42 68 -54 90 -12 22 -27 48 -33 57 -21 30 -28 27 357 134 165 46 307
85 460 129 72 21 184 52 250 70 66 19 131 38 145 44 32 13 40 13 40 1z"/>
</g>
</svg>
